<svg version="1.1" id="Layer_1" xmlns="http://www.w3.org/2000/svg" xmlns:xlink="http://www.w3.org/1999/xlink" x="0px" y="0px"
	 width="100%" viewBox="0 0 500 500" enable-background="new 0 0 500 500" xml:space="preserve">
<path fill="#000000" opacity="1.000000" stroke="none" 
	d="
M278.000000,501.000000 
	C185.333359,501.000000 93.166710,501.000000 1.000049,501.000000 
	C1.000033,334.333405 1.000033,167.666794 1.000016,1.000139 
	C167.666565,1.000093 334.333130,1.000093 500.999756,1.000046 
	C500.999847,167.666519 500.999847,334.333038 500.999939,500.999786 
	C426.833344,501.000000 352.666656,501.000000 278.000000,501.000000 
M377.085938,131.913834 
	C377.085938,131.913834 376.970734,131.911835 376.867584,131.454834 
	C376.687500,131.161133 376.425171,131.014297 376.079803,130.928970 
	C376.079803,130.928970 375.994446,130.926208 375.788422,130.362961 
	C375.213440,130.247559 374.638458,130.132141 373.876953,129.491867 
	C373.571167,129.294708 373.265411,129.097534 372.875031,128.464172 
	C372.709778,128.176025 372.461243,128.040771 372.132080,127.887787 
	C372.132080,127.887787 371.961609,127.879341 371.894440,127.435394 
	C371.715240,127.103828 371.459595,127.027199 370.449249,126.971222 
	C367.639099,125.304214 364.828918,123.637207 361.729309,121.326256 
	C359.162659,120.211021 356.595978,119.095779 353.698303,117.326874 
	C349.480774,115.865341 345.263245,114.403809 341.000000,113.000000 
	C341.000000,113.000000 341.043823,112.941666 340.826141,112.378792 
	C340.261688,112.318741 339.697266,112.258690 338.548370,112.044037 
	C338.351105,112.002869 338.153839,111.961700 337.577240,111.254097 
	C333.077118,110.559273 328.576996,109.864441 323.201813,109.032829 
	C320.195618,108.697205 317.189392,108.361572 313.688202,107.273582 
	C293.539825,107.238434 273.391479,107.203278 252.322708,107.194763 
	C252.215668,109.007545 252.015839,110.820282 252.015137,112.633110 
	C251.997162,159.689743 251.987885,206.746399 252.006180,253.803040 
	C252.011749,268.100128 252.103195,282.397156 252.054977,297.516693 
	C252.104980,298.604736 252.154984,299.692749 252.060791,301.714447 
	C250.699738,312.445984 249.338669,323.177551 247.337128,334.263580 
	C246.102631,336.827728 244.909210,339.412628 243.624939,341.951599 
	C241.092911,346.957275 238.510498,351.937439 235.956879,356.974060 
	C235.956879,356.974060 235.920639,356.944489 235.199844,356.937592 
	C233.461823,359.271881 231.723801,361.606140 229.937775,363.946472 
	C229.937775,363.946472 229.941925,363.994690 229.325058,364.236023 
	C226.878723,366.800568 224.432388,369.365112 221.939438,371.929138 
	C221.939438,371.929138 221.933655,371.975403 221.267059,371.996277 
	C220.239914,373.017731 219.212769,374.039215 217.856430,375.656372 
	C216.233994,376.742859 214.611542,377.829346 212.291946,379.012756 
	C211.516434,379.783508 210.740921,380.554260 209.180237,381.248993 
	C209.014877,381.268890 208.842575,381.266632 208.686279,381.315521 
	C208.555679,381.356384 208.443787,381.457062 208.323624,381.531281 
	C209.565430,382.023560 210.806305,382.943024 212.049194,382.945801 
	C245.692978,383.020721 279.337006,383.012695 312.980865,382.958252 
	C314.313446,382.956085 315.645050,382.361267 317.498779,381.920471 
	C317.670166,381.870239 317.841553,381.820038 318.646545,381.929962 
	C319.076233,381.883331 319.505920,381.836731 320.832764,381.933380 
	C326.824768,381.151062 333.087341,381.220947 338.756195,379.420898 
	C353.628143,374.698608 367.643280,368.156830 379.616821,357.708435 
	C394.902527,344.369629 406.329559,328.329102 412.606506,309.139221 
	C416.099640,298.460083 418.148224,287.238861 418.063477,275.772034 
	C418.000092,267.192902 418.498322,258.609558 418.902039,249.095383 
	C418.513947,231.755920 420.563934,214.264694 416.809113,197.137970 
	C415.004242,188.905609 411.673645,181.007782 408.981171,172.334595 
	C408.653656,171.886246 408.326172,171.437881 407.909821,170.400375 
	C407.625519,169.942581 407.341217,169.484772 406.986450,168.291504 
	C401.365295,157.485519 394.944427,147.272141 385.480988,139.285065 
	C385.480988,139.285065 385.458557,139.276138 385.139587,138.706833 
	C384.444702,138.144638 383.749817,137.582443 383.046844,136.941467 
	C383.046844,136.941467 382.967834,136.947067 382.757446,136.357285 
	C381.519226,135.316528 380.281006,134.275772 378.512726,133.064972 
	C378.334259,133.014145 378.155792,132.963333 377.872131,132.459412 
	C377.693848,132.164703 377.432465,132.021240 377.085938,131.913834 
M106.370544,382.840363 
	C122.418495,382.886749 138.466446,382.947144 154.514374,382.939087 
	C155.338623,382.938660 156.162582,382.351349 157.500687,381.926727 
	C157.671188,381.886261 157.841690,381.845764 158.898605,382.002716 
	C164.605011,381.008453 170.311401,380.014191 176.793060,378.951080 
	C181.541611,376.948059 186.472748,375.288666 191.005585,372.879730 
	C206.688736,364.545105 218.945206,352.920959 226.320145,336.349365 
	C231.082794,325.647552 233.718399,314.654602 233.906342,302.062775 
	C233.906342,237.074722 233.906342,172.086670 233.906342,106.946846 
	C218.898773,106.946846 204.430618,106.905067 189.963959,107.033241 
	C188.908615,107.042587 187.864166,108.283546 186.103745,109.432549 
	C186.068695,153.090469 186.025925,196.748398 186.009476,240.406326 
	C186.007660,245.233536 186.156128,250.060822 186.056549,255.826736 
	C185.788208,272.190216 185.519852,288.553711 185.077179,305.716431 
	C184.379791,308.194458 183.801651,310.713593 182.963470,313.143066 
	C179.996170,321.743652 172.887451,327.091644 165.925354,331.584747 
	C161.392700,334.509949 154.704330,334.094879 148.522247,335.063446 
	C148.522247,335.063446 148.064911,335.184692 147.592026,335.031372 
	C147.592026,335.031372 147.095810,335.001434 146.712601,334.195679 
	C134.077759,334.125641 121.442932,334.039795 108.808060,334.032227 
	C108.174614,334.031830 107.540756,334.709717 106.280418,335.058105 
	C105.583618,335.315094 104.886818,335.572113 103.327995,336.161591 
	C103.279785,345.430542 103.231583,354.699524 103.056084,364.890930 
	C103.089211,368.920898 103.122330,372.950836 103.001366,377.685059 
	C103.975372,379.153412 104.949379,380.621735 106.370544,382.840363 
z"/>
<path fill="#077AF0" opacity="1.000000" stroke="none" 
	d="
M318.012939,381.769867 
	C317.841553,381.820038 317.670166,381.870239 317.002991,381.952759 
	C316.507172,381.985046 316.045746,381.878906 315.687012,381.685425 
	C311.866821,381.296234 308.405365,381.100494 304.987061,380.552490 
	C307.304169,377.753998 309.610321,375.336700 311.843353,372.853607 
	C314.252533,370.174683 316.369476,367.191101 319.004608,364.764801 
	C328.065857,356.421509 337.368317,348.339691 346.405151,339.970703 
	C348.191772,338.316101 349.207458,335.829010 349.859283,334.829254 
	C352.834351,333.232910 354.918488,332.114624 357.323608,330.922729 
	C358.428467,329.900604 359.212402,328.952087 359.998169,327.751740 
	C360.001068,327.332062 360.002106,327.164215 360.350037,326.927795 
	C363.130432,324.239899 365.563995,321.620544 368.243378,318.851013 
	C368.994141,318.132660 369.499054,317.564484 370.322083,316.895081 
	C372.323822,315.463562 374.224701,314.331390 375.651367,312.766815 
	C380.470001,307.482300 385.599091,302.384827 389.724182,296.586121 
	C396.094177,287.631622 404.934021,280.536835 409.470367,270.209839 
	C410.036163,268.921814 411.523987,268.063507 412.228210,266.806488 
	C413.616913,264.327576 414.938599,261.778473 415.949188,259.129120 
	C417.077881,256.170319 417.830292,253.067978 418.746460,250.028091 
	C418.498322,258.609558 418.000092,267.192902 418.063477,275.772034 
	C418.148224,287.238861 416.099640,298.460083 412.606506,309.139221 
	C406.329559,328.329102 394.902527,344.369629 379.616821,357.708435 
	C367.643280,368.156830 353.628143,374.698608 338.756195,379.420898 
	C333.087341,381.220947 326.824768,381.151062 320.338715,381.667358 
	C319.234100,381.524200 318.623505,381.647034 318.012939,381.769867 
z"/>
<path fill="#0782EE" opacity="1.000000" stroke="none" 
	d="
M418.824249,249.561737 
	C417.830292,253.067978 417.077881,256.170319 415.949188,259.129120 
	C414.938599,261.778473 413.616913,264.327576 412.228210,266.806488 
	C411.523987,268.063507 410.036163,268.921814 409.470367,270.209839 
	C404.934021,280.536835 396.094177,287.631622 389.724182,296.586121 
	C385.599091,302.384827 380.470001,307.482300 375.651367,312.766815 
	C374.224701,314.331390 372.323822,315.463562 370.211060,316.577911 
	C367.080780,311.868561 365.196198,316.087097 362.809021,316.727783 
	C360.772644,316.252563 358.928772,316.046967 357.224548,315.527527 
	C364.268127,309.140869 367.423645,301.061584 370.374817,292.591858 
	C374.274048,281.401306 375.130646,270.014526 375.037292,258.356995 
	C374.948273,247.237762 375.216278,236.115692 375.642273,225.197968 
	C376.304413,227.138092 376.910126,228.868973 376.951630,230.613281 
	C377.090179,236.436722 376.583191,242.316956 377.257111,248.065979 
	C377.529694,250.391281 379.955597,252.754440 381.981903,254.374619 
	C382.473022,254.767288 385.300598,252.338058 386.977661,251.102997 
	C387.761932,250.525406 388.417725,249.744858 389.041870,248.982651 
	C394.803009,241.947128 400.555237,234.904190 406.267853,227.829330 
	C406.655701,227.348984 406.623749,226.552841 406.921692,225.972733 
	C408.163300,223.555206 409.012756,220.740417 410.819702,218.848404 
	C415.045807,214.423279 417.099640,209.452332 415.875854,203.472092 
	C414.387329,196.198090 412.551636,188.995285 410.880890,181.758286 
	C410.210205,178.853271 409.578735,175.939209 408.956787,173.013397 
	C408.984192,172.997543 409.033997,172.958466 409.033997,172.958466 
	C411.673645,181.007782 415.004242,188.905609 416.809113,197.137970 
	C420.563934,214.264694 418.513947,231.755920 418.824249,249.561737 
M382.610809,301.296051 
	C382.155273,301.452454 381.699768,301.608856 381.244232,301.765289 
	C381.417023,302.192047 381.589844,302.618835 381.762665,303.045593 
	C382.099823,302.621094 382.436951,302.196594 382.610809,301.296051 
z"/>
<path fill="#0694EF" opacity="1.000000" stroke="none" 
	d="
M247.977600,333.909088 
	C249.338669,323.177551 250.699738,312.445984 252.441513,301.096405 
	C253.203873,297.969238 253.585510,295.460114 254.302856,293.118042 
	C255.539154,296.020294 256.439728,298.755493 257.489716,301.944489 
	C262.172638,296.324951 265.659943,290.677368 270.499146,286.657104 
	C278.914886,279.665619 288.129486,273.666290 292.920563,263.228607 
	C293.254181,262.501862 294.938721,262.395294 296.055756,262.280579 
	C296.381866,263.064026 296.647278,263.567200 296.930237,264.534271 
	C296.899445,277.320923 296.851166,289.643646 296.464233,302.010773 
	C292.194641,305.778534 288.091248,309.338196 284.368439,313.259186 
	C276.520020,321.525360 269.401581,330.571198 260.959930,338.158112 
	C254.988693,343.524750 251.930573,350.735535 247.347290,356.814880 
	C243.212479,362.299347 234.642105,364.787384 234.652542,373.377838 
	C234.652878,373.653931 233.908371,374.091248 233.456436,374.182404 
	C229.475983,374.984985 229.051270,377.582733 229.512741,380.914032 
	C225.227661,380.941315 221.394226,381.151794 217.596466,380.874115 
	C216.021362,380.758972 214.522568,379.600067 212.989090,378.915802 
	C214.611542,377.829346 216.233994,376.742859 218.364746,375.331421 
	C219.893265,373.996094 220.913452,372.985748 221.933655,371.975403 
	C221.933655,371.975403 221.939438,371.929138 222.325073,371.938171 
	C226.656342,370.692352 229.436600,368.377808 229.941925,363.994690 
	C229.941925,363.994690 229.937775,363.946472 230.304825,363.898865 
	C232.421463,361.548981 234.171036,359.246735 235.920624,356.944489 
	C235.920639,356.944489 235.956879,356.974060 236.296127,356.900452 
	C239.434998,352.693756 242.618057,348.759979 244.905228,344.360504 
	C246.548950,341.198792 246.996490,337.415253 247.977600,333.909088 
M255.491623,306.848206 
	C256.190735,306.603973 256.889862,306.359741 257.588959,306.115509 
	C257.311310,305.649292 257.033630,305.183044 256.755981,304.716827 
	C256.288025,305.250763 255.820053,305.784698 255.491623,306.848206 
z"/>
<path fill="#08ADEE" opacity="1.000000" stroke="none" 
	d="
M148.981720,335.176270 
	C154.704330,334.094879 161.392700,334.509949 165.925354,331.584747 
	C172.887451,327.091644 179.996170,321.743652 182.963470,313.143066 
	C183.801651,310.713593 184.379791,308.194458 185.483215,305.156769 
	C186.327438,302.379486 186.765610,300.161835 187.545715,297.928772 
	C191.434799,293.923676 195.783142,290.392120 198.376450,285.856995 
	C205.681839,273.081512 216.939377,263.629517 225.704376,252.110519 
	C227.394348,249.889557 230.372406,248.648727 232.803680,247.424530 
	C232.835968,253.928040 232.820816,259.962769 232.462067,266.051758 
	C229.315002,269.046387 226.144608,271.723236 223.797974,274.991547 
	C220.635895,279.395569 218.189377,284.306885 215.265076,288.891632 
	C214.224991,290.522278 212.721970,291.869080 211.367371,293.285278 
	C208.076920,296.725372 203.484329,299.575287 201.692535,303.661133 
	C197.578537,313.042389 189.968307,319.567963 184.234268,327.576874 
	C183.617538,328.438263 181.939804,328.824890 180.715240,328.917786 
	C174.856155,329.362244 172.493362,331.441284 170.799545,336.977905 
	C170.215683,338.886322 168.714676,340.743225 167.168518,342.091339 
	C156.581161,351.322235 145.861771,360.401581 135.218658,369.568939 
	C134.503922,370.184570 133.539642,371.151794 133.583908,371.902924 
	C133.863663,376.649597 130.537781,376.738892 127.320816,376.998016 
	C124.710899,377.208221 122.219368,377.498169 121.559494,380.944946 
	C117.066872,380.961243 113.038605,380.959930 109.099274,380.596375 
	C110.598862,374.625183 113.352058,370.729401 118.674446,367.274719 
	C127.735039,361.393616 135.565063,353.614594 143.900528,346.619171 
	C149.851379,341.624969 149.841812,341.615570 146.071548,335.820374 
	C145.989319,335.693970 146.014893,335.497467 146.264526,335.243713 
	C146.724487,335.102997 146.910141,335.052216 147.095810,335.001434 
	C147.095810,335.001434 147.592026,335.031372 147.930710,335.187317 
	C148.269394,335.343292 148.646698,335.370087 148.646698,335.370087 
	C148.646698,335.370087 148.981720,335.176270 148.981720,335.176270 
z"/>
<path fill="#06B5F0" opacity="1.000000" stroke="none" 
	d="
M337.956604,111.920532 
	C338.153839,111.961700 338.351105,112.002869 339.042908,112.285004 
	C340.039581,112.664536 340.541718,112.803101 341.043823,112.941666 
	C341.043823,112.941666 341.000000,113.000000 341.251160,113.228561 
	C343.660614,114.348503 345.818848,115.239883 347.943115,116.483322 
	C346.092438,121.618149 344.713562,126.943321 339.075623,124.913475 
	C337.721619,127.755966 337.231873,130.194427 335.761658,131.625916 
	C329.485535,137.736679 322.878601,143.506424 316.509216,149.524246 
	C315.666840,150.320160 315.496338,151.827209 314.546753,153.011292 
	C309.052673,153.387634 304.026459,153.757584 298.727570,154.098175 
	C298.250946,154.363205 298.046967,154.657593 297.609619,155.290009 
	C297.139435,158.745636 296.902649,161.863251 296.328918,165.036255 
	C295.006653,166.473755 294.008423,167.846863 293.038727,169.239853 
	C291.141205,171.965790 289.454346,174.867935 287.316681,177.388809 
	C285.176453,179.912735 282.477753,181.954361 280.224945,184.393158 
	C273.927399,191.210632 267.666046,198.064499 261.535675,205.031845 
	C259.360138,207.504440 257.041321,208.241318 254.024277,206.522507 
	C254.017319,197.701813 254.031555,189.348755 254.409744,181.071442 
	C257.134247,180.899124 260.102417,181.457367 261.727203,180.232941 
	C264.981964,177.780167 267.531616,174.379395 270.318909,171.321289 
	C275.596313,165.531204 279.886475,158.603363 288.449158,156.750549 
	C289.536469,156.515274 290.820618,154.135559 290.856079,152.720337 
	C290.933136,149.644409 292.028442,147.764374 294.820618,146.500610 
	C296.099609,145.921738 297.142792,144.704529 298.136200,143.631683 
	C303.509277,137.828888 309.269775,132.312866 314.039886,126.045845 
	C318.057770,120.767151 326.233215,118.527100 326.362671,110.229439 
	C330.464081,110.877258 334.210358,111.398895 337.956604,111.920532 
z"/>
<path fill="#0A9FEC" opacity="1.000000" stroke="none" 
	d="
M158.012207,381.805237 
	C157.841690,381.845764 157.671188,381.886261 157.024048,381.949738 
	C156.547394,381.972748 156.131561,381.816986 155.892273,381.643311 
	C155.097321,381.276062 154.541656,381.082458 154.104630,380.581787 
	C156.476578,377.272552 159.119095,375.477509 163.118958,374.666962 
	C167.462860,373.786652 171.612793,371.658203 173.611008,366.658600 
	C174.729752,363.859467 176.970886,361.087402 179.435593,359.320343 
	C190.419464,351.445404 197.757523,340.272278 206.451828,330.327362 
	C211.357635,324.715912 216.024750,318.866150 221.280121,313.603821 
	C223.519424,311.361511 227.399536,310.594849 224.846939,305.479218 
	C226.594330,306.293793 227.474213,306.703979 227.233948,306.591980 
	C229.359665,304.045746 231.076523,301.989288 232.849228,300.253845 
	C233.194794,301.380615 233.484512,302.186371 233.774216,302.992096 
	C233.718399,314.654602 231.082794,325.647552 226.320145,336.349365 
	C218.945206,352.920959 206.688736,364.545105 191.005585,372.879730 
	C186.472748,375.288666 181.541611,376.948059 176.109695,378.759735 
	C169.621628,379.647339 163.816910,380.726288 158.012207,381.805237 
z"/>
<path fill="#089AEE" opacity="1.000000" stroke="none" 
	d="
M385.501831,139.297852 
	C394.944427,147.272141 401.365295,157.485519 406.967926,168.894897 
	C406.949402,169.498291 406.861542,169.975479 406.520325,169.990829 
	C405.533264,170.127640 404.628510,170.017166 404.280518,170.405533 
	C399.455872,175.790192 394.631042,181.178940 389.981049,186.713593 
	C388.295105,188.720261 385.973816,191.053452 385.843994,193.345383 
	C385.459595,200.130707 380.051361,202.427200 375.827393,205.727951 
	C374.512543,203.988419 373.364258,202.533142 372.140198,200.701416 
	C367.708466,188.398773 361.207123,177.848953 352.365112,169.035675 
	C355.921021,169.961868 359.105011,170.891754 363.224640,172.094925 
	C362.513794,168.961517 362.152527,167.369110 361.712982,165.431671 
	C364.141205,166.682602 366.063202,167.672729 367.985168,168.662842 
	C368.324341,168.347763 368.663513,168.032684 369.002716,167.717590 
	C368.451752,166.528427 367.727509,165.384354 367.402679,164.136337 
	C367.124847,163.068909 367.121185,160.923477 367.309143,160.887436 
	C373.318726,159.735519 374.970795,153.960220 378.415222,150.244720 
	C381.326263,147.104584 383.180084,142.984329 385.501831,139.297852 
z"/>
<path fill="#06BCF0" opacity="1.000000" stroke="none" 
	d="
M326.007507,110.103264 
	C326.233215,118.527100 318.057770,120.767151 314.039886,126.045845 
	C309.269775,132.312866 303.509277,137.828888 298.136200,143.631683 
	C297.142792,144.704529 296.099609,145.921738 294.820618,146.500610 
	C292.028442,147.764374 290.933136,149.644409 290.856079,152.720337 
	C290.820618,154.135559 289.536469,156.515274 288.449158,156.750549 
	C279.886475,158.603363 275.596313,165.531204 270.318909,171.321289 
	C267.531616,174.379395 264.981964,177.780167 261.727203,180.232941 
	C260.102417,181.457367 257.134247,180.899124 254.385468,180.603821 
	C254.010803,173.041809 254.024368,166.023178 254.398956,159.077347 
	C258.281342,160.668900 260.788513,159.400391 262.781158,156.372131 
	C264.143219,154.302200 265.420654,152.067154 267.202301,150.406189 
	C270.614655,147.224960 274.775513,144.777222 277.880829,141.350159 
	C284.752289,133.766800 290.737061,125.341995 297.936981,118.110054 
	C301.635345,114.395233 301.551758,111.789955 299.459167,108.121124 
	C304.669312,108.068642 309.426270,108.047295 314.183197,108.025955 
	C317.189392,108.361572 320.195618,108.697205 323.850830,109.267708 
	C325.002380,109.702812 325.504944,109.903038 326.007507,110.103264 
z"/>
<path fill="#08A4EE" opacity="1.000000" stroke="none" 
	d="
M385.491394,139.291458 
	C383.180084,142.984329 381.326263,147.104584 378.415222,150.244720 
	C374.970795,153.960220 373.318726,159.735519 367.309143,160.887436 
	C367.121185,160.923477 367.124847,163.068909 367.402679,164.136337 
	C367.727509,165.384354 368.451752,166.528427 369.002716,167.717590 
	C368.663513,168.032684 368.324341,168.347763 367.985168,168.662842 
	C366.063202,167.672729 364.141205,166.682602 361.712982,165.431671 
	C362.152527,167.369110 362.513794,168.961517 363.224640,172.094925 
	C359.105011,170.891754 355.921021,169.961868 352.357544,169.025665 
	C351.978027,169.019363 351.960754,169.007523 351.893188,168.673859 
	C348.503937,165.798523 345.203125,163.227814 341.811401,160.783325 
	C341.595703,160.627853 340.673828,161.452164 339.718048,161.798721 
	C335.890442,160.199951 332.425262,158.623138 329.125305,156.800903 
	C331.338928,156.256317 333.379883,155.787506 335.437469,155.696808 
	C338.725983,155.551865 342.025513,155.658020 344.238922,155.658020 
	C345.485962,152.357727 345.809845,150.012253 347.076752,148.414444 
	C351.683746,142.603912 356.502594,136.950684 361.450378,131.425095 
	C364.250763,128.297714 364.631439,125.404404 361.880188,122.149284 
	C361.926727,122.089859 362.018768,121.970207 362.018768,121.970207 
	C364.828918,123.637207 367.639099,125.304214 370.901611,127.229385 
	C371.528900,127.660957 371.731445,127.791557 371.961609,127.879341 
	C371.961609,127.879341 372.132080,127.887787 372.239624,128.139771 
	C372.517151,128.602402 372.721313,128.771942 372.959625,128.900375 
	C373.265411,129.097534 373.571167,129.294708 374.168427,129.941071 
	C374.971405,130.568924 375.482941,130.747559 375.994446,130.926208 
	C375.994446,130.926208 376.079803,130.928970 376.200073,131.147217 
	C376.504059,131.586960 376.720856,131.769089 376.970734,131.911835 
	C376.970734,131.911835 377.085938,131.913834 377.206970,132.145264 
	C377.510681,132.596222 377.727142,132.774826 377.977325,132.912506 
	C378.155792,132.963333 378.334259,133.014145 378.793915,133.498383 
	C380.372681,134.936874 381.670258,135.941971 382.967834,136.947067 
	C382.967834,136.947067 383.046844,136.941467 383.075989,137.323578 
	C383.889618,138.229156 384.674103,138.752640 385.458557,139.276138 
	C385.458557,139.276138 385.480988,139.285065 385.491394,139.291458 
z"/>
<path fill="#0AB2ED" opacity="1.000000" stroke="none" 
	d="
M145.990189,335.333649 
	C146.014893,335.497467 145.989319,335.693970 146.071548,335.820374 
	C149.841812,341.615570 149.851379,341.624969 143.900528,346.619171 
	C135.565063,353.614594 127.735039,361.393616 118.674446,367.274719 
	C113.352058,370.729401 110.598862,374.625183 108.766602,380.543884 
	C106.615143,379.562683 104.885300,378.271729 103.155457,376.980804 
	C103.122330,372.950836 103.089211,368.920898 103.406082,364.125244 
	C103.900726,354.182739 104.045372,345.005951 104.190018,335.829132 
	C104.886818,335.572113 105.583618,335.315094 107.068130,335.090637 
	C120.567291,335.193329 133.278732,335.263489 145.990189,335.333649 
M120.980858,336.115173 
	C117.329056,336.093506 113.633354,335.739410 110.046951,336.212982 
	C108.601990,336.403809 106.361534,338.326630 106.261749,339.600525 
	C105.838142,345.008240 106.081932,350.468262 106.081932,354.973724 
	C108.852417,356.210663 110.789032,357.075317 112.404167,357.796417 
	C118.399734,352.724487 124.595688,347.598907 130.561096,342.217773 
	C131.041031,341.784821 130.322769,338.766144 129.492279,338.377014 
	C127.132782,337.271576 124.426605,336.906067 120.980858,336.115173 
z"/>
<path fill="#3CB9D3" opacity="1.000000" stroke="none" 
	d="
M233.840271,302.527435 
	C233.484512,302.186371 233.194794,301.380615 232.904449,299.794373 
	C232.871094,288.008362 232.838379,277.002930 232.805679,265.997467 
	C232.820816,259.962769 232.835968,253.928040 232.859680,246.962540 
	C232.824112,238.680435 232.779999,231.329102 232.795166,223.513641 
	C232.532333,214.698807 232.210220,206.348129 231.914032,197.529724 
	C232.203705,187.705948 232.467422,178.349930 232.787994,168.527679 
	C232.802887,159.706772 232.760925,151.352081 232.780579,142.532318 
	C232.610397,136.045761 232.378555,130.024277 232.280273,123.623917 
	C232.516068,120.162933 232.618286,117.080833 232.763794,113.605545 
	C232.919556,109.115570 230.782104,107.700874 226.895187,107.950493 
	C223.275803,108.182938 219.636383,108.103256 215.538406,108.111641 
	C207.937805,108.020485 200.800751,108.104904 193.672806,107.889076 
	C189.458038,107.761452 187.669647,109.299316 187.760254,113.675247 
	C187.983490,124.454552 187.896805,135.240265 187.909027,146.489014 
	C187.903931,152.305847 187.924576,157.657043 187.922821,163.470551 
	C187.918686,167.958740 187.936935,171.984634 187.932220,176.470108 
	C187.924500,180.620789 187.939758,184.311890 187.936508,188.471191 
	C187.933487,197.625122 187.949005,206.310883 187.945938,215.465225 
	C187.947342,224.619904 187.967316,233.305984 187.970749,242.449005 
	C187.618332,246.649094 187.282440,250.392242 186.922485,253.658722 
	C186.920639,221.072479 186.962372,188.962936 186.956863,156.853394 
	C186.954117,140.886230 186.864792,124.919060 186.814636,108.951897 
	C187.864166,108.283546 188.908615,107.042587 189.963959,107.033241 
	C204.430618,106.905067 218.898773,106.946846 233.906342,106.946846 
	C233.906342,172.086670 233.906342,237.074722 233.840271,302.527435 
z"/>
<path fill="#3CB9D3" opacity="1.000000" stroke="none" 
	d="
M313.935699,107.649765 
	C309.426270,108.047295 304.669312,108.068642 298.991028,108.081192 
	C292.044922,108.083961 286.020172,108.095528 279.528076,108.074783 
	C272.258057,108.028648 265.453186,108.113434 258.653717,107.959412 
	C255.252411,107.882362 253.856369,109.208015 253.915451,112.628693 
	C254.061569,121.088257 254.023819,129.550995 254.035324,138.479675 
	C254.019791,145.632782 254.028870,152.318680 254.037933,159.004562 
	C254.024368,166.023178 254.010803,173.041809 254.021515,180.528061 
	C254.031555,189.348755 254.017319,197.701813 253.998749,206.991684 
	C254.006805,216.615433 254.019150,225.302353 254.006958,234.458496 
	C253.992584,243.610306 254.002762,252.292908 253.988617,261.445221 
	C253.965256,272.260284 253.966202,282.605621 253.967148,292.950989 
	C253.585510,295.460114 253.203873,297.969238 252.513611,300.629578 
	C252.154984,299.692749 252.104980,298.604736 252.350342,296.798157 
	C252.745377,293.923187 252.931015,291.766754 252.932205,289.610229 
	C252.964279,231.791443 252.973709,173.972641 253.004242,116.153862 
	C253.005829,113.158569 253.159988,110.163368 253.243103,107.168121 
	C273.391479,107.203278 293.539825,107.238434 313.935699,107.649765 
z"/>
<path fill="#DDFFFF" opacity="1.000000" stroke="none" 
	d="
M252.782913,107.181442 
	C253.159988,110.163368 253.005829,113.158569 253.004242,116.153862 
	C252.973709,173.972641 252.964279,231.791443 252.932205,289.610229 
	C252.931015,291.766754 252.745377,293.923187 252.400513,296.386932 
	C252.103195,282.397156 252.011749,268.100128 252.006180,253.803040 
	C251.987885,206.746399 251.997162,159.689743 252.015137,112.633110 
	C252.015839,110.820282 252.215668,109.007545 252.782913,107.181442 
z"/>
<path fill="#97EAF8" opacity="1.000000" stroke="none" 
	d="
M186.459198,109.192223 
	C186.864792,124.919060 186.954117,140.886230 186.956863,156.853394 
	C186.962372,188.962936 186.920639,221.072479 186.887955,253.760345 
	C186.877518,254.338684 186.856430,254.556274 186.688477,254.615677 
	C186.520523,254.675079 186.234894,254.888062 186.234894,254.888062 
	C186.156128,250.060822 186.007660,245.233536 186.009476,240.406326 
	C186.025925,196.748398 186.068695,153.090469 186.459198,109.192223 
z"/>
<path fill="#138CDB" opacity="1.000000" stroke="none" 
	d="
M212.640518,378.964294 
	C214.522568,379.600067 216.021362,380.758972 217.596466,380.874115 
	C221.394226,381.151794 225.227661,380.941315 229.983505,380.936768 
	C242.267853,380.923309 253.615417,380.900696 265.433472,380.899628 
	C278.917297,380.915741 291.930634,380.910248 304.943939,380.904755 
	C308.405365,381.100494 311.866821,381.296234 315.216400,381.740753 
	C281.512482,381.998230 247.920395,382.015594 214.328354,381.986359 
	C212.873840,381.985077 211.419708,381.555206 209.965393,381.325012 
	C210.740921,380.554260 211.516434,379.783508 212.640518,378.964294 
z"/>
<path fill="#85C1FE" opacity="1.000000" stroke="none" 
	d="
M209.572815,381.286987 
	C211.419708,381.555206 212.873840,381.985077 214.328354,381.986359 
	C247.920395,382.015594 281.512482,381.998230 315.575134,381.934204 
	C316.045746,381.878906 316.507172,381.985046 316.742126,382.013794 
	C315.645050,382.361267 314.313446,382.956085 312.980865,382.958252 
	C279.337006,383.012695 245.692978,383.020721 212.049194,382.945801 
	C210.806305,382.943024 209.565430,382.023560 208.323624,381.531281 
	C208.443787,381.457062 208.555679,381.356384 208.686279,381.315521 
	C208.842575,381.266632 209.014877,381.268890 209.572815,381.286987 
z"/>
<path fill="#138CDB" opacity="1.000000" stroke="none" 
	d="
M103.078415,377.332947 
	C104.885300,378.271729 106.615143,379.562683 108.677658,380.906128 
	C113.038605,380.959930 117.066872,380.961243 122.024979,380.966125 
	C133.298538,380.942749 143.642258,380.915833 153.985977,380.888885 
	C154.541656,381.082458 155.097321,381.276062 155.413010,381.717285 
	C138.756470,382.006622 122.339928,382.048340 105.923386,382.090088 
	C104.949379,380.621735 103.975372,379.153412 103.078415,377.332947 
z"/>
<path fill="#3CB9D3" opacity="1.000000" stroke="none" 
	d="
M186.145721,255.357391 
	C186.234894,254.888062 186.520523,254.675079 186.758789,255.121811 
	C187.090469,260.704224 187.183899,265.839905 187.231003,271.443481 
	C187.191040,280.589020 187.197403,289.266602 187.203766,297.944214 
	C186.765610,300.161835 186.327438,302.379486 185.570374,304.757141 
	C185.519852,288.553711 185.788208,272.190216 186.145721,255.357391 
z"/>
<path fill="#138CDB" opacity="1.000000" stroke="none" 
	d="
M247.657379,334.086334 
	C246.996490,337.415253 246.548950,341.198792 244.905228,344.360504 
	C242.618057,348.759979 239.434998,352.693756 236.292145,356.877502 
	C238.510498,351.937439 241.092911,346.957275 243.624939,341.951599 
	C244.909210,339.412628 246.102631,336.827728 247.657379,334.086334 
z"/>
<path fill="#97EAF8" opacity="1.000000" stroke="none" 
	d="
M106.146965,382.465210 
	C122.339928,382.048340 138.756470,382.006622 155.652283,381.890930 
	C156.131561,381.816986 156.547394,381.972748 156.767029,382.005005 
	C156.162582,382.351349 155.338623,382.938660 154.514374,382.939087 
	C138.466446,382.947144 122.418495,382.886749 106.146965,382.465210 
z"/>
<path fill="#DDFFFF" opacity="1.000000" stroke="none" 
	d="
M146.264526,335.243713 
	C133.278732,335.263489 120.567291,335.193329 107.381470,335.097473 
	C107.540756,334.709717 108.174614,334.031830 108.808060,334.032227 
	C121.442932,334.039795 134.077759,334.125641 146.904205,334.598572 
	C146.910141,335.052216 146.724487,335.102997 146.264526,335.243713 
z"/>
<path fill="#138CDB" opacity="1.000000" stroke="none" 
	d="
M158.455414,381.903992 
	C163.816910,380.726288 169.621628,379.647339 175.722076,378.794159 
	C170.311401,380.014191 164.605011,381.008453 158.455414,381.903992 
z"/>
<path fill="#DDFFFF" opacity="1.000000" stroke="none" 
	d="
M103.759003,335.995361 
	C104.045372,345.005951 103.900726,354.182739 103.469727,363.664001 
	C103.231583,354.699524 103.279785,345.430542 103.759003,335.995361 
z"/>
<path fill="#08A4EE" opacity="1.000000" stroke="none" 
	d="
M326.362671,110.229439 
	C325.504944,109.903038 325.002380,109.702812 324.288330,109.336098 
	C328.576996,109.864441 333.077118,110.559273 337.766907,111.587311 
	C334.210358,111.398895 330.464081,110.877258 326.362671,110.229439 
z"/>
<path fill="#138CDB" opacity="1.000000" stroke="none" 
	d="
M229.633484,364.115356 
	C229.436600,368.377808 226.656342,370.692352 222.348389,371.938416 
	C224.432388,369.365112 226.878723,366.800568 229.633484,364.115356 
z"/>
<path fill="#08A4EE" opacity="1.000000" stroke="none" 
	d="
M347.977112,116.131271 
	C345.818848,115.239883 343.660614,114.348503 341.274048,113.199699 
	C345.263245,114.403809 349.480774,115.865341 353.815735,117.709656 
	C353.933197,118.092438 353.838562,118.205650 353.486694,118.152504 
	C351.415619,117.443329 349.696350,116.787300 347.977112,116.131271 
z"/>
<path fill="#138CDB" opacity="1.000000" stroke="none" 
	d="
M235.560242,356.941040 
	C234.171036,359.246735 232.421463,361.548981 230.328827,363.895813 
	C231.723801,361.606140 233.461823,359.271881 235.560242,356.941040 
z"/>
<path fill="#08A4EE" opacity="1.000000" stroke="none" 
	d="
M353.981262,118.036484 
	C356.595978,119.095779 359.162659,120.211021 361.874023,121.648232 
	C362.018768,121.970207 361.926727,122.089859 361.513611,122.091904 
	C358.679871,120.797859 356.259216,119.501755 353.838562,118.205658 
	C353.838562,118.205650 353.933197,118.092438 353.981262,118.036484 
z"/>
<path fill="#089AEE" opacity="1.000000" stroke="none" 
	d="
M382.862640,136.652176 
	C381.670258,135.941971 380.372681,134.936874 379.058960,133.583405 
	C380.281006,134.275772 381.519226,135.316528 382.862640,136.652176 
z"/>
<path fill="#138CDB" opacity="1.000000" stroke="none" 
	d="
M221.600342,371.985840 
	C220.913452,372.985748 219.893265,373.996094 218.529358,375.033569 
	C219.212769,374.039215 220.239914,373.017731 221.600342,371.985840 
z"/>
<path fill="#089AEE" opacity="1.000000" stroke="none" 
	d="
M385.299072,138.991486 
	C384.674103,138.752640 383.889618,138.229156 383.080048,137.362961 
	C383.749817,137.582443 384.444702,138.144638 385.299072,138.991486 
z"/>
<path fill="#138CDB" opacity="1.000000" stroke="none" 
	d="
M318.329742,381.849915 
	C318.623505,381.647034 319.234100,381.524200 319.890137,381.595734 
	C319.505920,381.836731 319.076233,381.883331 318.329742,381.849915 
z"/>
<path fill="#089AEE" opacity="1.000000" stroke="none" 
	d="
M375.891418,130.644592 
	C375.482941,130.747559 374.971405,130.568924 374.261688,130.203506 
	C374.638458,130.132141 375.213440,130.247559 375.891418,130.644592 
z"/>
<path fill="#08A4EE" opacity="1.000000" stroke="none" 
	d="
M340.934998,112.660233 
	C340.541718,112.803101 340.039581,112.664536 339.335144,112.362305 
	C339.697266,112.258690 340.261688,112.318741 340.934998,112.660233 
z"/>
<path fill="#0782EE" opacity="1.000000" stroke="none" 
	d="
M407.998657,170.989517 
	C408.326172,171.437881 408.653656,171.886246 409.007568,172.646530 
	C409.033997,172.958466 408.984192,172.997543 408.770813,172.800659 
	C408.349548,172.083069 408.141632,171.562393 407.950623,171.029510 
	C407.967560,171.017303 407.998657,170.989517 407.998657,170.989517 
z"/>
<path fill="#0782EE" opacity="1.000000" stroke="none" 
	d="
M406.861542,169.975479 
	C406.861542,169.975479 406.949402,169.498291 407.003174,169.262634 
	C407.341217,169.484772 407.625519,169.942581 407.954224,170.694946 
	C407.998657,170.989517 407.967560,171.017303 407.751740,170.873627 
	C407.311127,170.478439 407.086334,170.226959 406.861542,169.975479 
z"/>
<path fill="#089AEE" opacity="1.000000" stroke="none" 
	d="
M372.917328,128.682281 
	C372.721313,128.771942 372.517151,128.602402 372.238281,128.225082 
	C372.461243,128.040771 372.709778,128.176025 372.917328,128.682281 
z"/>
<path fill="#089AEE" opacity="1.000000" stroke="none" 
	d="
M371.928040,127.657364 
	C371.731445,127.791557 371.528900,127.660957 371.240723,127.346527 
	C371.459595,127.027199 371.715240,127.103828 371.928040,127.657364 
z"/>
<path fill="#0AB2ED" opacity="1.000000" stroke="none" 
	d="
M148.751984,335.119873 
	C148.981720,335.176270 148.646698,335.370087 148.646698,335.370087 
	C148.646698,335.370087 148.269394,335.343292 148.167145,335.263977 
	C148.064911,335.184692 148.522247,335.063446 148.751984,335.119873 
z"/>
<path fill="#089AEE" opacity="1.000000" stroke="none" 
	d="
M376.919159,131.683334 
	C376.720856,131.769089 376.504059,131.586960 376.200439,131.189911 
	C376.425171,131.014297 376.687500,131.161133 376.919159,131.683334 
z"/>
<path fill="#089AEE" opacity="1.000000" stroke="none" 
	d="
M377.924744,132.685959 
	C377.727142,132.774826 377.510681,132.596222 377.208008,132.202881 
	C377.432465,132.021240 377.693848,132.164703 377.924744,132.685959 
z"/>
<path fill="#0584F0" opacity="1.000000" stroke="none" 
	d="
M304.987061,380.552490 
	C291.930634,380.910248 278.917297,380.915741 265.444092,380.477478 
	C265.501343,377.544464 265.191620,374.219025 266.697632,372.729492 
	C270.535797,368.933441 275.244293,366.030731 279.475311,362.610718 
	C280.853943,361.496338 282.033783,360.010010 282.961273,358.485046 
	C287.108459,351.666351 292.726471,346.452728 299.929321,343.107239 
	C303.150696,341.610962 304.402588,339.428223 304.414307,336.046936 
	C307.226044,335.691711 309.611237,335.349487 311.997620,335.003052 
	C311.998779,334.998779 312.004578,335.000916 312.245880,335.007660 
	C312.487183,335.014404 312.969910,335.006470 313.238647,335.055725 
	C313.682770,335.154205 313.858124,335.203430 314.383972,335.422760 
	C326.126953,336.244843 336.269257,332.328033 346.225159,327.283691 
	C346.989807,328.515015 347.562378,329.490723 348.215668,330.604034 
	C350.771790,326.372864 352.992157,322.697418 355.410187,318.996094 
	C355.607819,318.970245 355.998901,318.892975 356.253540,318.795013 
	C357.004547,318.470459 357.500946,318.243896 358.144867,318.200073 
	C358.503937,318.616058 358.739746,318.821381 358.999908,318.999390 
	C359.000000,319.000000 359.001221,319.000000 359.109619,319.329651 
	C359.479736,322.104950 359.741455,324.550659 360.003174,326.996338 
	C360.002106,327.164215 360.001068,327.332062 359.677429,327.825562 
	C358.570801,329.099548 357.786713,330.047943 357.002655,330.996338 
	C354.918488,332.114624 352.834351,333.232910 349.859283,334.829254 
	C349.207458,335.829010 348.191772,338.316101 346.405151,339.970703 
	C337.368317,348.339691 328.065857,356.421509 319.004608,364.764801 
	C316.369476,367.191101 314.252533,370.174683 311.843353,372.853607 
	C309.610321,375.336700 307.304169,377.753998 304.987061,380.552490 
z"/>
<path fill="#0782EE" opacity="1.000000" stroke="none" 
	d="
M360.350037,326.927795 
	C359.741455,324.550659 359.479736,322.104950 359.484009,319.329651 
	C360.498779,319.000824 361.247559,319.001617 362.086853,319.262024 
	C364.117432,319.348175 366.057465,319.174683 367.997528,319.001221 
	C365.563995,321.620544 363.130432,324.239899 360.350037,326.927795 
z"/>
<path fill="#0584F0" opacity="1.000000" stroke="none" 
	d="
M368.243378,318.851013 
	C366.057465,319.174683 364.117432,319.348175 362.210266,319.010254 
	C362.495972,317.998383 362.748749,317.497925 363.001526,316.997467 
	C365.196198,316.087097 367.080780,311.868561 369.892944,316.679138 
	C369.499054,317.564484 368.994141,318.132660 368.243378,318.851013 
z"/>
<path fill="#0782EE" opacity="1.000000" stroke="none" 
	d="
M357.323608,330.922729 
	C357.786713,330.047943 358.570801,329.099548 359.675598,328.077362 
	C359.212402,328.952087 358.428467,329.900604 357.323608,330.922729 
z"/>
<path fill="#000000" opacity="1.000000" stroke="none" 
	d="
M314.033478,335.252625 
	C313.858124,335.203430 313.682770,335.154205 313.188232,334.818970 
	C312.580902,334.688965 312.292755,334.844940 312.004578,335.000916 
	C312.004578,335.000916 311.998779,334.998779 311.628113,335.003967 
	C306.852020,334.981049 302.446533,334.953003 298.030579,334.955750 
	C298.020081,334.986603 298.083893,334.973419 298.036865,334.728271 
	C297.989838,334.483154 297.823700,334.013184 297.873413,333.546082 
	C297.933929,310.292145 297.964203,287.505310 297.951111,264.718506 
	C297.930145,228.129669 297.880524,191.540833 297.843018,154.951996 
	C298.046967,154.657593 298.250946,154.363205 298.962463,154.456970 
	C308.981995,155.516754 318.493958,156.188354 328.240875,156.924973 
	C328.475800,156.990005 328.960052,157.046326 328.960052,157.046326 
	C332.425262,158.623138 335.890442,160.199951 340.021545,161.964691 
	C344.445221,164.437592 348.203003,166.722549 351.960754,169.007523 
	C351.960754,169.007523 351.978027,169.019363 351.985626,169.029388 
	C361.207123,177.848953 367.708466,188.398773 372.084106,201.087006 
	C372.750031,205.262131 373.404755,208.673660 374.039246,212.088928 
	C374.402252,214.042816 374.732330,216.002792 375.090485,218.400970 
	C375.178284,220.892899 375.252808,222.943878 375.327332,224.994873 
	C375.216278,236.115692 374.948273,247.237762 375.037292,258.356995 
	C375.130646,270.014526 374.274048,281.401306 370.374817,292.591858 
	C367.423645,301.061584 364.268127,309.140869 356.941101,315.657349 
	C356.285217,316.433868 356.052429,316.766693 355.583435,317.161835 
	C355.087891,317.455475 354.937225,317.743744 354.588318,318.223450 
	C351.189240,320.862366 348.097137,323.366669 344.668304,326.024567 
	C340.488892,327.796478 336.758423,329.808960 332.777588,330.941864 
	C326.619385,332.694427 320.290161,333.846130 314.033478,335.252625 
z"/>
<path fill="#068DF0" opacity="1.000000" stroke="none" 
	d="
M375.642273,225.197968 
	C375.252808,222.943878 375.178284,220.892899 375.301392,218.056137 
	C375.664001,213.517654 375.828949,209.764923 375.993896,206.012207 
	C380.051361,202.427200 385.459595,200.130707 385.843994,193.345383 
	C385.973816,191.053452 388.295105,188.720261 389.981049,186.713593 
	C394.631042,181.178940 399.455872,175.790192 404.280518,170.405533 
	C404.628510,170.017166 405.533264,170.127640 406.520325,169.990829 
	C407.086334,170.226959 407.311127,170.478439 407.734802,170.885818 
	C408.141632,171.562393 408.349548,172.083069 408.743439,172.816513 
	C409.578735,175.939209 410.210205,178.853271 410.880890,181.758286 
	C412.551636,188.995285 414.387329,196.198090 415.875854,203.472092 
	C417.099640,209.452332 415.045807,214.423279 410.819702,218.848404 
	C409.012756,220.740417 408.163300,223.555206 406.921692,225.972733 
	C406.623749,226.552841 406.655701,227.348984 406.267853,227.829330 
	C400.555237,234.904190 394.803009,241.947128 389.041870,248.982651 
	C388.417725,249.744858 387.761932,250.525406 386.977661,251.102997 
	C385.300598,252.338058 382.473022,254.767288 381.981903,254.374619 
	C379.955597,252.754440 377.529694,250.391281 377.257111,248.065979 
	C376.583191,242.316956 377.090179,236.436722 376.951630,230.613281 
	C376.910126,228.868973 376.304413,227.138092 375.642273,225.197968 
z"/>
<path fill="#077AF0" opacity="1.000000" stroke="none" 
	d="
M355.819641,317.099548 
	C356.052429,316.766693 356.285217,316.433868 356.801422,315.971191 
	C358.928772,316.046967 360.772644,316.252563 362.809021,316.727783 
	C362.748749,317.497925 362.495972,317.998383 362.119751,318.750610 
	C361.247559,319.001617 360.498779,319.000824 359.375610,319.000000 
	C359.001221,319.000000 359.000000,319.000000 358.854950,318.814026 
	C358.500305,318.391876 358.262787,318.188263 357.997345,318.017273 
	C357.500946,318.243896 357.004547,318.470459 356.241943,318.495087 
	C355.923706,317.895264 355.871674,317.497406 355.819641,317.099548 
z"/>
<path fill="#077AF0" opacity="1.000000" stroke="none" 
	d="
M382.692444,301.534058 
	C382.436951,302.196594 382.099823,302.621094 381.762665,303.045593 
	C381.589844,302.618835 381.417023,302.192047 381.244232,301.765289 
	C381.699768,301.608856 382.155273,301.452454 382.692444,301.534058 
z"/>
<path fill="#058CF0" opacity="1.000000" stroke="none" 
	d="
M303.987762,336.059967 
	C304.402588,339.428223 303.150696,341.610962 299.929321,343.107239 
	C292.726471,346.452728 287.108459,351.666351 282.961273,358.485046 
	C282.033783,360.010010 280.853943,361.496338 279.475311,362.610718 
	C275.244293,366.030731 270.535797,368.933441 266.697632,372.729492 
	C265.191620,374.219025 265.501343,377.544464 264.973572,380.455933 
	C253.615417,380.900696 242.267853,380.923309 230.449524,380.923157 
	C229.051270,377.582733 229.475983,374.984985 233.456436,374.182404 
	C233.908371,374.091248 234.652878,373.653931 234.652542,373.377838 
	C234.642105,364.787384 243.212479,362.299347 247.347290,356.814880 
	C251.930573,350.735535 254.988693,343.524750 260.959930,338.158112 
	C269.401581,330.571198 276.520020,321.525360 284.368439,313.259186 
	C288.091248,309.338196 292.194641,305.778534 296.524841,302.479980 
	C296.927094,308.899872 296.930115,314.895020 296.838745,321.030884 
	C296.715393,321.280457 296.641174,321.401520 296.666656,321.495514 
	C296.724274,321.707642 296.831177,321.906403 296.932922,322.407288 
	C296.943024,323.100006 296.938171,323.495972 296.839783,324.032837 
	C296.808380,324.485291 296.870514,324.796814 296.952820,325.547913 
	C296.997131,328.629517 297.021271,331.271545 297.175812,334.129089 
	C297.565460,334.554199 297.824677,334.763824 298.083893,334.973419 
	C298.083893,334.973419 298.020081,334.986603 298.134094,335.231445 
	C300.161316,335.670837 302.074554,335.865387 303.987762,336.059967 
z"/>
<path fill="#069EF0" opacity="1.000000" stroke="none" 
	d="
M254.302856,293.118042 
	C253.966202,282.605621 253.965256,272.260284 254.310837,261.564026 
	C258.889740,264.543213 262.201447,264.709686 264.477417,260.387848 
	C269.577515,250.703308 279.411469,245.985870 286.313141,238.263382 
	C288.371674,235.960022 290.463531,233.686401 293.274139,230.590652 
	C293.502838,230.614914 295.105408,230.784897 296.755981,231.353455 
	C296.823730,232.821777 296.843445,233.891525 296.678162,235.325562 
	C296.626923,240.157013 296.760742,244.624146 296.907166,249.546722 
	C296.912811,253.945023 296.905853,257.887848 296.674255,261.880188 
	C296.449615,261.929657 295.995056,262.000305 295.995056,262.000305 
	C294.938721,262.395294 293.254181,262.501862 292.920563,263.228607 
	C288.129486,273.666290 278.914886,279.665619 270.499146,286.657104 
	C265.659943,290.677368 262.172638,296.324951 257.489716,301.944489 
	C256.439728,298.755493 255.539154,296.020294 254.302856,293.118042 
z"/>
<path fill="#3CB9D3" opacity="1.000000" stroke="none" 
	d="
M296.863190,234.961258 
	C296.843445,233.891525 296.823730,232.821777 296.818878,230.938934 
	C296.840759,228.442856 296.847748,226.759918 296.879883,224.719330 
	C296.887268,223.884262 296.869507,223.406830 296.863739,222.470978 
	C296.862000,218.014191 296.848236,214.015823 296.869690,209.550095 
	C296.884094,203.721191 296.863342,198.359619 296.853394,192.529755 
	C296.798096,183.034576 296.731964,174.007721 296.665863,164.980865 
	C296.902649,161.863251 297.139435,158.745636 297.609619,155.290009 
	C297.880524,191.540833 297.930145,228.129669 297.951111,264.718506 
	C297.964203,287.505310 297.933929,310.292145 297.678619,333.522705 
	C297.434143,333.966431 297.045410,333.913605 297.045410,333.913605 
	C297.021271,331.271545 296.997131,328.629517 296.974030,325.243347 
	C296.961182,324.296783 296.947266,324.094391 296.933350,323.891968 
	C296.938171,323.495972 296.943024,323.100006 296.957336,322.101990 
	C296.955597,321.296661 296.944366,321.093414 296.933167,320.890137 
	C296.930115,314.895020 296.927094,308.899872 296.863464,302.435547 
	C296.851166,289.643646 296.899445,277.320923 296.958069,264.161499 
	C296.945221,262.826782 296.922058,262.328735 296.898926,261.830688 
	C296.905853,257.887848 296.912811,253.945023 296.941528,249.073486 
	C296.929901,243.750290 296.896545,239.355774 296.863190,234.961258 
z"/>
<path fill="#069EF0" opacity="1.000000" stroke="none" 
	d="
M255.421860,306.583435 
	C255.820053,305.784698 256.288025,305.250763 256.755981,304.716827 
	C257.033630,305.183044 257.311310,305.649292 257.588959,306.115509 
	C256.889862,306.359741 256.190735,306.603973 255.421860,306.583435 
z"/>
<path fill="#138CDB" opacity="1.000000" stroke="none" 
	d="
M296.674255,261.880188 
	C296.922058,262.328735 296.945221,262.826782 296.940552,263.697571 
	C296.647278,263.567200 296.381866,263.064026 296.055756,262.280579 
	C295.995056,262.000305 296.449615,261.929657 296.674255,261.880188 
z"/>
<path fill="#05A7F0" opacity="1.000000" stroke="none" 
	d="
M154.104630,380.581787 
	C143.642258,380.915833 133.298538,380.942749 122.489334,380.948517 
	C122.219368,377.498169 124.710899,377.208221 127.320816,376.998016 
	C130.537781,376.738892 133.863663,376.649597 133.583908,371.902924 
	C133.539642,371.151794 134.503922,370.184570 135.218658,369.568939 
	C145.861771,360.401581 156.581161,351.322235 167.168518,342.091339 
	C168.714676,340.743225 170.215683,338.886322 170.799545,336.977905 
	C172.493362,331.441284 174.856155,329.362244 180.715240,328.917786 
	C181.939804,328.824890 183.617538,328.438263 184.234268,327.576874 
	C189.968307,319.567963 197.578537,313.042389 201.692535,303.661133 
	C203.484329,299.575287 208.076920,296.725372 211.367371,293.285278 
	C212.721970,291.869080 214.224991,290.522278 215.265076,288.891632 
	C218.189377,284.306885 220.635895,279.395569 223.797974,274.991547 
	C226.144608,271.723236 229.315002,269.046387 232.462067,266.051758 
	C232.838379,277.002930 232.871094,288.008362 232.848602,299.473328 
	C231.076523,301.989288 229.359665,304.045746 227.233948,306.591980 
	C227.474213,306.703979 226.594330,306.293793 224.846939,305.479218 
	C227.399536,310.594849 223.519424,311.361511 221.280121,313.603821 
	C216.024750,318.866150 211.357635,324.715912 206.451828,330.327362 
	C197.757523,340.272278 190.419464,351.445404 179.435593,359.320343 
	C176.970886,361.087402 174.729752,363.859467 173.611008,366.658600 
	C171.612793,371.658203 167.462860,373.786652 163.118958,374.666962 
	C159.119095,375.477509 156.476578,377.272552 154.104630,380.581787 
M175.468048,334.604004 
	C175.752441,335.354034 176.036835,336.104095 176.321213,336.854126 
	C177.021072,336.359711 177.720932,335.865295 178.420792,335.370880 
	C177.627380,335.025360 176.833969,334.679840 175.468048,334.604004 
z"/>
<path fill="#06B5F0" opacity="1.000000" stroke="none" 
	d="
M187.545700,297.928772 
	C187.197403,289.266602 187.191040,280.589020 187.571442,271.415283 
	C189.168610,269.524109 190.512054,268.221130 191.556625,266.711365 
	C192.942764,264.707916 193.593781,261.776672 195.431168,260.573547 
	C206.236420,253.498123 212.075104,241.935760 220.718903,232.922699 
	C224.375839,229.109543 228.217300,226.273788 232.735886,223.977783 
	C232.779999,231.329102 232.824112,238.680435 232.812241,246.493744 
	C230.372406,248.648727 227.394348,249.889557 225.704376,252.110519 
	C216.939377,263.629517 205.681839,273.081512 198.376450,285.856995 
	C195.783142,290.392120 191.434799,293.923676 187.545700,297.928772 
z"/>
<path fill="#06ADEF" opacity="1.000000" stroke="none" 
	d="
M296.328918,165.036255 
	C296.731964,174.007721 296.798096,183.034576 296.684998,192.848862 
	C296.342041,195.095139 296.178284,196.553970 295.687744,197.905426 
	C294.234009,197.329910 293.107086,196.861771 291.170502,196.057281 
	C291.562286,202.395218 291.029236,207.737595 284.398285,209.576508 
	C284.026520,209.679642 283.857239,210.392258 283.516327,210.746750 
	C281.016266,213.346497 278.471893,215.903961 275.988739,218.519577 
	C272.491516,222.203278 268.721680,225.684128 265.635162,229.688553 
	C261.105865,235.564880 259.096008,236.569809 254.031509,233.989288 
	C254.019150,225.302353 254.006805,216.615433 254.019958,207.459320 
	C257.041321,208.241318 259.360138,207.504440 261.535675,205.031845 
	C267.666046,198.064499 273.927399,191.210632 280.224945,184.393158 
	C282.477753,181.954361 285.176453,179.912735 287.316681,177.388809 
	C289.454346,174.867935 291.141205,171.965790 293.038727,169.239853 
	C294.008423,167.846863 295.006653,166.473755 296.328918,165.036255 
z"/>
<path fill="#06ADEF" opacity="1.000000" stroke="none" 
	d="
M329.125305,156.800903 
	C328.960052,157.046326 328.475800,156.990005 328.084900,156.610229 
	C323.467560,155.155273 319.241089,154.080093 315.014648,153.004913 
	C315.496338,151.827209 315.666840,150.320160 316.509216,149.524246 
	C322.878601,143.506424 329.485535,137.736679 335.761658,131.625916 
	C337.231873,130.194427 337.721619,127.755966 339.075623,124.913475 
	C344.713562,126.943321 346.092438,121.618149 347.943115,116.483315 
	C349.696350,116.787300 351.415619,117.443329 353.486694,118.152512 
	C356.259216,119.501755 358.679871,120.797859 361.467072,122.151337 
	C364.631439,125.404404 364.250763,128.297714 361.450378,131.425095 
	C356.502594,136.950684 351.683746,142.603912 347.076752,148.414444 
	C345.809845,150.012253 345.485962,152.357727 344.238922,155.658020 
	C342.025513,155.658020 338.725983,155.551865 335.437469,155.696808 
	C333.379883,155.787506 331.338928,156.256317 329.125305,156.800903 
z"/>
<path fill="#138CDB" opacity="1.000000" stroke="none" 
	d="
M314.546753,153.011292 
	C319.241089,154.080093 323.467560,155.155273 327.849976,156.545197 
	C318.493958,156.188354 308.981995,155.516754 299.235107,154.486359 
	C304.026459,153.757584 309.052673,153.387634 314.546753,153.011292 
z"/>
<path fill="#0782EE" opacity="1.000000" stroke="none" 
	d="
M375.827393,205.727951 
	C375.828949,209.764923 375.664001,213.517654 375.288147,217.615204 
	C374.732330,216.002792 374.402252,214.042816 374.039246,212.088928 
	C373.404755,208.673660 372.750031,205.262131 372.159851,201.463470 
	C373.364258,202.533142 374.512543,203.988419 375.827393,205.727951 
z"/>
<path fill="#06C2F0" opacity="1.000000" stroke="none" 
	d="
M279.995453,108.107094 
	C286.020172,108.095528 292.044922,108.083961 298.537811,108.112335 
	C301.551758,111.789955 301.635345,114.395233 297.936981,118.110054 
	C290.737061,125.341995 284.752289,133.766800 277.880829,141.350159 
	C274.775513,144.777222 270.614655,147.224960 267.202301,150.406189 
	C265.420654,152.067154 264.143219,154.302200 262.781158,156.372131 
	C260.788513,159.400391 258.281342,160.668900 254.398956,159.077347 
	C254.028870,152.318680 254.019791,145.632782 254.373260,138.544312 
	C256.444000,137.679077 258.818390,137.775940 259.752808,136.663406 
	C266.084076,129.125137 272.192688,121.393600 278.162994,113.564178 
	C279.264679,112.119446 279.409149,109.944824 279.995453,108.107094 
z"/>
<path fill="#089AEE" opacity="1.000000" stroke="none" 
	d="
M351.893188,168.673859 
	C348.203003,166.722549 344.445221,164.437592 340.383972,161.986649 
	C340.673828,161.452164 341.595703,160.627853 341.811401,160.783325 
	C345.203125,163.227814 348.503937,165.798523 351.893188,168.673859 
z"/>
<path fill="#06BCF0" opacity="1.000000" stroke="none" 
	d="
M121.418884,336.182251 
	C124.426605,336.906067 127.132782,337.271576 129.492279,338.377014 
	C130.322769,338.766144 131.041031,341.784821 130.561096,342.217773 
	C124.595688,347.598907 118.399734,352.724487 112.404167,357.796417 
	C110.789032,357.075317 108.852417,356.210663 106.081932,354.973724 
	C106.081932,350.468262 105.838142,345.008240 106.261749,339.600525 
	C106.361534,338.326630 108.601990,336.403809 110.046951,336.212982 
	C113.633354,335.739410 117.329056,336.093506 121.418884,336.182251 
z"/>
<path fill="#06C2F0" opacity="1.000000" stroke="none" 
	d="
M232.731171,168.993896 
	C232.467422,178.349930 232.203705,187.705948 231.602600,197.650543 
	C226.774445,202.403320 220.884995,204.981339 217.926086,210.922729 
	C216.319305,214.149094 214.350662,218.036514 211.450836,219.614212 
	C203.849411,223.749817 200.449753,230.972107 196.225616,237.642303 
	C194.211517,240.822678 191.727570,242.420380 187.987274,241.992065 
	C187.967316,233.305984 187.947342,224.619904 188.354950,215.465912 
	C191.103882,213.799103 194.079147,213.149185 195.629288,211.302780 
	C201.247574,204.610672 206.308197,197.454239 211.734604,190.595932 
	C215.733231,185.542145 220.347336,180.935547 223.972397,175.640350 
	C226.290512,172.254227 228.700912,169.761215 232.731171,168.993896 
z"/>
<path fill="#06BCF0" opacity="1.000000" stroke="none" 
	d="
M187.970749,242.449005 
	C191.727570,242.420380 194.211517,240.822678 196.225616,237.642303 
	C200.449753,230.972107 203.849411,223.749817 211.450836,219.614212 
	C214.350662,218.036514 216.319305,214.149094 217.926086,210.922729 
	C220.884995,204.981339 226.774445,202.403320 231.576660,198.118286 
	C232.210220,206.348129 232.532333,214.698807 232.795166,223.513641 
	C228.217300,226.273788 224.375839,229.109543 220.718903,232.922699 
	C212.075104,241.935760 206.236420,253.498123 195.431168,260.573547 
	C193.593781,261.776672 192.942764,264.707916 191.556625,266.711365 
	C190.512054,268.221130 189.168610,269.524109 187.617767,270.947388 
	C187.183899,265.839905 187.090469,260.704224 186.926743,255.062408 
	C186.856430,254.556274 186.877518,254.338684 186.912048,254.237045 
	C187.282440,250.392242 187.618332,246.649094 187.970749,242.449005 
z"/>
<path fill="#05CCF1" opacity="1.000000" stroke="none" 
	d="
M232.788010,168.527679 
	C228.700912,169.761215 226.290512,172.254227 223.972397,175.640350 
	C220.347336,180.935547 215.733231,185.542145 211.734604,190.595932 
	C206.308197,197.454239 201.247574,204.610672 195.629288,211.302780 
	C194.079147,213.149185 191.103882,213.799103 188.373505,214.997314 
	C187.949005,206.310883 187.933487,197.625122 188.350830,188.470078 
	C196.225723,188.697449 198.326416,181.968018 202.304291,178.023605 
	C205.493103,174.861633 208.031723,171.035263 210.787918,167.449188 
	C212.270981,165.519592 213.879745,163.612717 214.956787,161.458130 
	C218.970627,153.428497 225.405594,147.809006 232.718964,142.997391 
	C232.760925,151.352081 232.802887,159.706772 232.788010,168.527679 
z"/>
<path fill="#05D2F2" opacity="1.000000" stroke="none" 
	d="
M232.780594,142.532318 
	C225.405594,147.809006 218.970627,153.428497 214.956787,161.458130 
	C213.879745,163.612717 212.270981,165.519592 210.787918,167.449188 
	C208.031723,171.035263 205.493103,174.861633 202.304291,178.023605 
	C198.326416,181.968018 196.225723,188.697449 188.369354,188.001892 
	C187.939758,184.311890 187.924500,180.620789 188.272369,176.385620 
	C195.711502,166.792526 203.125854,157.983475 209.763611,148.623688 
	C215.804535,140.105453 224.843048,134.222626 229.915390,124.927757 
	C230.215714,124.377434 231.382919,124.300194 232.146729,124.002800 
	C232.378555,130.024277 232.610397,136.045761 232.780594,142.532318 
z"/>
<path fill="#04D8F3" opacity="1.000000" stroke="none" 
	d="
M232.280289,123.623917 
	C231.382919,124.300194 230.215714,124.377434 229.915390,124.927757 
	C224.843048,134.222626 215.804535,140.105453 209.763611,148.623688 
	C203.125854,157.983475 195.711502,166.792526 188.295349,175.926041 
	C187.936935,171.984634 187.918686,167.958740 188.283844,163.431091 
	C189.779633,161.624863 191.073486,160.433548 191.970718,158.994873 
	C194.766525,154.511917 197.081314,149.693039 200.189499,145.448853 
	C205.551376,138.127258 210.837494,130.613342 217.183929,124.197540 
	C221.444901,119.889969 227.479477,117.336830 232.720490,113.998726 
	C232.618286,117.080833 232.516068,120.162933 232.280289,123.623917 
z"/>
<path fill="#04DDF3" opacity="1.000000" stroke="none" 
	d="
M232.763809,113.605545 
	C227.479477,117.336830 221.444901,119.889969 217.183929,124.197540 
	C210.837494,130.613342 205.551376,138.127258 200.189499,145.448853 
	C197.081314,149.693039 194.766525,154.511917 191.970718,158.994873 
	C191.073486,160.433548 189.779633,161.624863 188.306229,162.968811 
	C187.924576,157.657043 187.903931,152.305847 188.261108,146.394257 
	C189.265076,145.334229 190.338867,144.915543 190.446198,144.322067 
	C191.266800,139.784348 193.674088,136.569061 197.711700,134.343307 
	C198.761902,133.764374 199.325699,132.308884 200.122299,131.263168 
	C204.274368,125.812889 208.526489,120.434883 212.532349,114.879265 
	C213.990784,112.856598 214.865005,110.412697 216.005783,108.160980 
	C219.636383,108.103256 223.275803,108.182938 226.895187,107.950493 
	C230.782104,107.700874 232.919556,109.115570 232.763809,113.605545 
z"/>
<path fill="#03E4F4" opacity="1.000000" stroke="none" 
	d="
M215.538406,108.111649 
	C214.865005,110.412697 213.990784,112.856598 212.532349,114.879265 
	C208.526489,120.434883 204.274368,125.812889 200.122299,131.263168 
	C199.325699,132.308884 198.761902,133.764374 197.711700,134.343307 
	C193.674088,136.569061 191.266800,139.784348 190.446198,144.322067 
	C190.338867,144.915543 189.265076,145.334229 188.286835,145.928650 
	C187.896805,135.240265 187.983490,124.454552 187.760254,113.675247 
	C187.669647,109.299316 189.458038,107.761452 193.672806,107.889076 
	C200.800751,108.104904 207.937805,108.020485 215.538406,108.111649 
z"/>
<path fill="#05A7F0" opacity="1.000000" stroke="none" 
	d="
M254.006958,234.458496 
	C259.096008,236.569809 261.105865,235.564880 265.635162,229.688553 
	C268.721680,225.684128 272.491516,222.203278 275.988739,218.519577 
	C278.471893,215.903961 281.016266,213.346497 283.516327,210.746750 
	C283.857239,210.392258 284.026520,209.679642 284.398285,209.576508 
	C291.029236,207.737595 291.562286,202.395218 291.170502,196.057281 
	C293.107086,196.861771 294.234009,197.329910 295.694733,198.359650 
	C296.297180,202.619965 296.565826,206.318710 296.834473,210.017441 
	C296.848236,214.015823 296.862000,218.014191 296.740356,222.671356 
	C296.688232,223.912399 296.771484,224.494690 296.854736,225.076965 
	C296.847748,226.759918 296.840759,228.442856 296.770874,230.540344 
	C295.105408,230.784897 293.502838,230.614914 293.274139,230.590652 
	C290.463531,233.686401 288.371674,235.960022 286.313141,238.263382 
	C279.411469,245.985870 269.577515,250.703308 264.477417,260.387848 
	C262.201447,264.709686 258.889740,264.543213 254.335144,261.094299 
	C254.002762,252.292908 253.992584,243.610306 254.006958,234.458496 
z"/>
<path fill="#05CCF1" opacity="1.000000" stroke="none" 
	d="
M279.528076,108.074783 
	C279.409149,109.944824 279.264679,112.119446 278.162994,113.564178 
	C272.192688,121.393600 266.084076,129.125137 259.752808,136.663406 
	C258.818390,137.775940 256.444000,137.679077 254.397888,138.077103 
	C254.023819,129.550995 254.061569,121.088257 253.915451,112.628693 
	C253.856369,109.208015 255.252411,107.882362 258.653717,107.959412 
	C265.453186,108.113434 272.258057,108.028648 279.528076,108.074783 
z"/>
<path fill="#138CDB" opacity="1.000000" stroke="none" 
	d="
M314.383972,335.422760 
	C320.290161,333.846130 326.619385,332.694427 332.777588,330.941864 
	C336.758423,329.808960 340.488892,327.796478 344.813812,326.239319 
	C345.541718,326.543060 345.787384,326.785583 346.033081,327.028107 
	C336.269257,332.328033 326.126953,336.244843 314.383972,335.422760 
z"/>
<path fill="#077AF0" opacity="1.000000" stroke="none" 
	d="
M346.225159,327.283691 
	C345.787384,326.785583 345.541718,326.543060 345.150543,326.085754 
	C348.097137,323.366669 351.189240,320.862366 354.664551,318.457581 
	C355.047791,318.557098 355.212555,319.021973 355.212555,319.021973 
	C352.992157,322.697418 350.771790,326.372864 348.215668,330.604034 
	C347.562378,329.490723 346.989807,328.515015 346.225159,327.283691 
z"/>
<path fill="#138CDB" opacity="1.000000" stroke="none" 
	d="
M304.414307,336.046936 
	C302.074554,335.865387 300.161316,335.670837 298.144592,335.200623 
	C302.446533,334.953003 306.852020,334.981049 311.626953,335.008209 
	C309.611237,335.349487 307.226044,335.691711 304.414307,336.046936 
z"/>
<path fill="#0782EE" opacity="1.000000" stroke="none" 
	d="
M355.410187,318.996094 
	C355.212555,319.021973 355.047791,318.557098 354.971527,318.322998 
	C354.937225,317.743744 355.087891,317.455475 355.583435,317.161835 
	C355.871674,317.497406 355.923706,317.895264 355.987305,318.593048 
	C355.998901,318.892975 355.607819,318.970245 355.410187,318.996094 
z"/>
<path fill="#138CDB" opacity="1.000000" stroke="none" 
	d="
M312.245880,335.007660 
	C312.292755,334.844940 312.580902,334.688965 312.919495,334.769745 
	C312.969910,335.006470 312.487183,335.014404 312.245880,335.007660 
z"/>
<path fill="#0782EE" opacity="1.000000" stroke="none" 
	d="
M358.144867,318.200043 
	C358.262787,318.188263 358.500305,318.391876 358.854858,318.813416 
	C358.739746,318.821381 358.503937,318.616058 358.144867,318.200043 
z"/>
<path fill="#138CDB" opacity="1.000000" stroke="none" 
	d="
M297.175842,334.129089 
	C297.045410,333.913605 297.434143,333.966431 297.628906,333.989807 
	C297.823700,334.013184 297.989838,334.483154 298.036865,334.728271 
	C297.824677,334.763824 297.565460,334.554199 297.175842,334.129089 
z"/>
<path fill="#138CDB" opacity="1.000000" stroke="none" 
	d="
M296.838745,321.030884 
	C296.944366,321.093414 296.955597,321.296661 296.942413,321.805267 
	C296.831177,321.906403 296.724274,321.707642 296.666656,321.495514 
	C296.641174,321.401520 296.715393,321.280457 296.838745,321.030884 
z"/>
<path fill="#138CDB" opacity="1.000000" stroke="none" 
	d="
M296.839783,324.032837 
	C296.947266,324.094391 296.961182,324.296783 296.953857,324.803772 
	C296.870514,324.796814 296.808380,324.485291 296.839783,324.032837 
z"/>
<path fill="#138CDB" opacity="1.000000" stroke="none" 
	d="
M296.678162,235.325562 
	C296.896545,239.355774 296.929901,243.750290 296.928894,248.618042 
	C296.760742,244.624146 296.626923,240.157013 296.678162,235.325562 
z"/>
<path fill="#138CDB" opacity="1.000000" stroke="none" 
	d="
M296.869690,209.550095 
	C296.565826,206.318710 296.297180,202.619965 296.021545,198.467026 
	C296.178284,196.553970 296.342041,195.095139 296.674164,193.317169 
	C296.863342,198.359619 296.884094,203.721191 296.869690,209.550095 
z"/>
<path fill="#138CDB" opacity="1.000000" stroke="none" 
	d="
M296.879883,224.719330 
	C296.771484,224.494690 296.688232,223.912399 296.728333,223.129761 
	C296.869507,223.406830 296.887268,223.884262 296.879883,224.719330 
z"/>
<path fill="#08ADEE" opacity="1.000000" stroke="none" 
	d="
M175.754303,334.469177 
	C176.833969,334.679840 177.627380,335.025360 178.420792,335.370880 
	C177.720932,335.865295 177.021072,336.359711 176.321213,336.854126 
	C176.036835,336.104095 175.752441,335.354034 175.754303,334.469177 
z"/>
</svg>